# xmcd CD database file generated by Grip 2.5
# 
# Track frame offsets:
#       150
#       271030
#       278739
#       280862
#       283311
#       286098
#       289152
#       298501
#       308473
#       311677
#       314513
#       317509
#       320748
#       323638
# 
# Disc length: 4360 seconds
# 
# Revision: 3
# Processed by: cddbd v1.4b41PL1 Copyright (c) Steve Scherf et al.
# Submitted via: Grip 2.5
# 
DISCID=d711060e
DTITLE=Tom Clancy's Rainbow Six - Rogue Spear: In-game tracks
DYEAR=1900
DGENRE=
TTITLE0=PC-CDROM data track
TTITLE1=Main Menu title music
TTITLE2=in-game track 3
TTITLE3=in-game track 4
TTITLE4=in-game track 5
TTITLE5=in-game track 6
TTITLE6=in-game track 7
TTITLE7=in-game track 8
TTITLE8=in-game track 9
TTITLE9=in-game track 10
TTITLE10=in-game track 11
TTITLE11=in-game track 12
TTITLE12=in-game track 13
TTITLE13=in-game track 14
EXTD=
EXTT0=
EXTT1=
EXTT2=
EXTT3=
EXTT4=
EXTT5=
EXTT6=
EXTT7=
EXTT8=
EXTT9=
EXTT10=
EXTT11=
EXTT12=
EXTT13=
PLAYORDER=
